<?xml version="1.0" encoding="UTF-8" standalone="no"?>
<svg width="205px" height="75px" viewBox="0 0 205 75" version="1.1" xmlns="http://www.w3.org/2000/svg" xmlns:xlink="http://www.w3.org/1999/xlink">
    <!-- Generator: Sketch 39 (31667) - http://www.bohemiancoding.com/sketch -->
    <title>logo</title>
    <desc>Created with Sketch.</desc>
    <defs></defs>
    <g id="Page-1" stroke="none" stroke-width="1" fill="none" fill-rule="evenodd">
        <g id="2.0-Product" transform="translate(-128.000000, -19.000000)">
            <g id="Navbar">
                <g id="logo" transform="translate(128.000000, 19.000000)">
                    <g id="graphic">
                        <path d="M43.3103652,31.4336192 L32.3288259,25.0763212 L21.3469253,31.4336192 C21.3469253,35.6515684 21.271767,39.7010412 21.271767,44.0317912 L32.262942,50.5413822 C32.8169933,50.2212166 33.3793555,49.8979109 33.9349727,49.5760545 L43.3103652,44.1613792 L43.3103652,31.4336192 Z" id="Fill-1" fill="#17A7E0"></path>
                        <path d="M64.413014,18.939033 L32.0635196,0.120759555 L24.6939135,4.44595402 C35.4244435,10.7431077 46.159189,17.0360343 56.926214,23.2701452 L56.926214,48.3300173 L64.413014,43.945524 L64.413014,18.939033 Z M32.4417199,53.964014 L21.3469614,47.4421043 L21.3469614,56.1951491 L32.2172086,62.6323979 L32.2172086,62.6340887 L32.3397022,62.7048609 C39.5776608,58.500438 46.7975525,54.2631653 54.0198532,50.0318104 L54.0198532,25.0808743 C46.7144448,20.8525387 39.4021711,16.633744 32.0930289,12.4116886 L10.6596716,25.0808743 L10.6596716,27.2376141 L10.6596716,62.0390469 L18.076372,66.4534915 C18.1086515,54.1007275 18.1745355,41.7474803 18.1745355,29.3947162 L32.2256399,21.1349028 C38.2211985,24.6016525 43.6619831,27.7493235 46.5037849,29.3947162 L46.5037849,45.7570985 C40.4325862,49.3097168 35.1008052,52.424538 32.4417199,53.964014 L32.4417199,53.964014 Z M0.00165010955,18.939033 L-3.61337861e-05,55.696 L7.48929321,60.1521109 L7.48929321,23.2701452 L28.9991337,10.5247526 L21.6805967,6.2276979 L0.00165010955,18.939033 Z M64.413014,56.0693051 C53.7378892,62.3000343 43.1638186,68.5387345 32.4807444,74.7078703 L32.2172086,74.8614918 L32.2172086,74.8602841 L32.2126317,74.8623372 L21.3469614,68.4275039 L21.3469614,59.6736137 L32.3313914,66.1315144 C40.1765181,61.5921918 53.5784188,53.730804 64.413014,47.404182 L64.413014,56.0693051 Z" id="Fill-3" fill="#17A7E0"></path>
                        <path d="M64.413014,56.0693051 L64.413014,47.404182 C53.5784188,53.730804 40.1765181,61.5921918 32.3313914,66.1315144 L32.2494881,66.0832057 L32.2494881,74.8425307 L32.4807444,74.7078703 C43.1638186,68.5386138 53.7378892,62.3000343 64.413014,56.0693051 L64.413014,56.0693051 Z M32.4417199,53.9638932 C35.1008052,52.424538 40.4325862,49.3097168 46.5037849,45.7570985 L46.5037849,29.6299794 L54.0198532,25.2791813 L54.0198532,50.0318104 C46.7975525,54.2631653 39.5776608,58.500438 32.3397022,62.7048609 L32.2172086,62.6340887 L32.2494881,62.6530498 L32.2494881,53.8512133 L32.4417199,53.9638932 Z M32.2629781,50.5409836 L33.9350088,49.5760183 L43.3104013,44.1613429 L43.3104013,31.4921572 L35.1239308,36.2196419 L32.2423818,37.8835127 L32.2629781,50.5409836 Z M64.413014,19.2622178 L64.413014,43.945524 L56.926214,48.3300173 L56.926214,23.5967117 L64.413014,19.2622178 Z" id="Fill-8" fill="#47C5E5"></path>
                        <path d="M18.1745234,29.7254977 C18.1741621,41.9679972 18.1086395,54.2106176 18.07636,66.4534795 L10.6596595,62.0390348 L10.6596595,27.237602 L10.6596595,25.3742165 L18.1745234,29.7254977 Z M7.48930525,23.5394539 L7.48930525,60.1520988 L-2.40891904e-05,55.6959879 L0.00166215415,19.20496 L7.48930525,23.5394539 Z M32.2495484,62.6530378 L32.2172689,62.6340766 L32.2172689,62.6323858 L21.3469012,56.195137 L21.3469012,47.4420922 L32.2495484,53.8512012 L32.2495484,62.6530378 Z M32.2526533,74.860947 L32.2203738,74.8419859 L32.2203738,74.8402951 L21.3500061,68.4030463 L21.3500061,59.6500015 L32.2526533,66.0591105 L32.2526533,74.860947 Z M21.349021,31.4323752 L21.346853,31.4335829 C21.346853,35.6515322 21.2718152,39.7011258 21.2718152,44.031755 L32.2629901,50.5414667 L32.2423939,37.8835127 L21.349021,31.4323752 Z" id="Combined-Shape" fill="#0E5A98"></path>
                    </g>
                    <path d="M180.805346,35.2542539 L169.388154,35.2542539 C168.902154,35.2542539 168.658733,35.0110198 168.658733,34.5237063 L168.658733,13.6114943 C168.658733,13.12406 168.902154,12.8809467 169.388154,12.8809467 L172.337755,12.8809467 C172.823754,12.8809467 173.067175,13.12406 173.067175,13.6114943 L173.067175,31.0093726 C173.067175,31.2640799 173.205688,31.3923394 173.482594,31.3923394 L180.805346,31.3923394 C181.267859,31.3923394 181.498633,31.6474091 181.498633,32.1579108 L181.498633,34.5237063 C181.498633,35.0110198 181.267859,35.2542539 180.805346,35.2542539 L180.805346,35.2542539 Z M164.113585,35.2542539 L152.765287,35.2542539 C152.27977,35.2542539 152.037192,35.0110198 152.037192,34.5237063 L152.037192,13.6114943 C152.037192,13.12406 152.27977,12.8809467 152.765287,12.8809467 L164.113585,12.8809467 C164.576097,12.8809467 164.807715,13.12406 164.807715,13.6114943 L164.807715,15.9772898 C164.807715,16.4646034 164.576097,16.7081998 164.113585,16.7081998 L156.86057,16.7081998 C156.582701,16.7081998 156.444309,16.8357346 156.444309,17.0908043 L156.444309,21.6146681 C156.444309,21.869617 156.582701,21.9971518 156.86057,21.9971518 L162.794461,21.9971518 C163.280942,21.9971518 163.524002,22.2407482 163.524002,22.7281825 L163.524002,25.093978 C163.524002,25.5812916 163.280942,25.8245256 162.794461,25.8245256 L156.86057,25.8245256 C156.582701,25.8245256 156.444309,25.9524228 156.444309,26.2074925 L156.444309,31.0443963 C156.444309,31.2993453 156.582701,31.4268801 156.86057,31.4268801 L164.113585,31.4268801 C164.576097,31.4268801 164.807715,31.6704765 164.807715,32.1579108 L164.807715,34.5237063 C164.807715,35.0110198 164.576097,35.2542539 164.113585,35.2542539 L164.113585,35.2542539 Z M142.529188,35.2542539 L138.746944,35.2542539 C136.918816,35.2542539 135.50743,34.7673027 134.512306,33.7931587 C133.517663,32.8185316 133.020823,31.4150445 133.020823,29.5824557 L133.020823,18.5527449 C133.020823,16.7196731 133.517663,15.3165482 134.512306,14.3424043 C135.50743,13.3677772 136.918816,12.8809467 138.746944,12.8809467 L142.529188,12.8809467 C144.332987,12.8809467 145.738952,13.3732119 146.745278,14.3596746 C147.751243,15.3456542 148.254948,16.7427404 148.254948,18.5527449 L148.254948,20.1879928 C148.254948,20.6984945 148.000205,20.9539265 147.491561,20.9539265 L144.576408,20.9539265 C144.090409,20.9539265 143.847349,20.6984945 143.847349,20.1879928 L143.847349,18.7614383 C143.847349,18.019055 143.691251,17.4909207 143.379055,17.1783637 C143.06722,16.8648406 142.540028,16.7081998 141.800129,16.7081998 L139.440231,16.7081998 C138.723457,16.7081998 138.208069,16.8648406 137.895391,17.1783637 C137.583557,17.4909207 137.427459,18.019055 137.427459,18.7614383 L137.427459,29.3736416 C137.427459,30.1160248 137.583557,30.6437968 137.895391,30.9571992 C138.208069,31.269877 138.723457,31.4268801 139.440231,31.4268801 L141.800129,31.4268801 C142.540028,31.4268801 143.06722,31.269877 143.379055,30.9571992 C143.691251,30.6437968 143.847349,30.1160248 143.847349,29.3736416 L143.847349,27.9470871 C143.847349,27.4370685 144.090409,27.1821195 144.576408,27.1821195 L147.491561,27.1821195 C148.000205,27.1821195 148.254948,27.4370685 148.254948,27.9470871 L148.254948,29.5824557 C148.254948,31.3923394 147.751243,32.7895464 146.745278,33.775526 C145.738952,34.7610226 144.332987,35.2542539 142.529188,35.2542539 L142.529188,35.2542539 Z M118.063604,35.2542539 L115.113642,35.2542539 C114.628004,35.2542539 114.385426,35.0110198 114.385426,34.5237063 L114.385426,23.4586094 L121.553285,23.4586094 L122.574787,23.4586094 C123.315529,23.4586094 123.858981,23.3020893 124.205625,22.9885662 C124.553112,22.6758884 124.726915,22.1714253 124.726915,21.4757807 L124.726915,18.7614383 C124.726915,18.0418809 124.553112,17.5200267 124.205625,17.195151 C123.858981,16.8711207 123.315529,16.7081998 122.574787,16.7081998 L121.553285,16.7081998 L114.385426,16.7081998 L114.385426,13.6114943 C114.385426,13.12406 114.628004,12.8809467 115.113642,12.8809467 L123.372982,12.8809467 C125.177624,12.8809467 126.588648,13.3796128 127.606778,14.3769449 C128.624907,15.3742771 129.133551,16.7777642 129.133551,18.5872856 L129.133551,21.3015072 C129.133551,23.9223724 128.104581,25.6620878 126.045557,26.5205325 L126.045557,26.6602653 L129.758183,34.4193596 C129.966314,34.9764791 129.769867,35.2542539 129.168841,35.2542539 L126.357392,35.2542539 C125.940649,35.2542539 125.640618,35.2079984 125.455131,35.1153665 C125.270367,35.0228554 125.11981,34.8250315 125.004302,34.5237063 L121.533893,27.0078461 L119.208925,27.0078461 C118.930574,27.0078461 118.792543,27.1348978 118.792543,27.3908129 L118.792543,34.5237063 C118.792543,35.0110198 118.549603,35.2542539 118.063604,35.2542539 L118.063604,35.2542539 Z M102.413459,17.0908043 L99.9146874,27.1467335 L105.050382,27.1467335 L102.552454,17.0908043 L102.413459,17.0908043 Z M97.3814682,35.2542539 L94.0499331,35.2542539 C93.6336719,35.2542539 93.4946773,35.0110198 93.6336719,34.5237063 L99.1168534,13.6114943 C99.2783715,13.12406 99.6254967,12.8809467 100.157266,12.8809467 L104.772995,12.8809467 C105.351256,12.8809467 105.698382,13.12406 105.813769,13.6114943 L111.29695,34.5237063 C111.436306,35.0110198 111.29695,35.2542539 110.880689,35.2542539 L107.549154,35.2542539 C107.294411,35.2542539 107.121089,35.2020806 107.028707,35.0977339 C106.936446,34.9932664 106.866707,34.8023264 106.820215,34.5237063 L105.848578,30.6959702 L99.0820446,30.6959702 L98.1095639,34.5237063 C98.0637945,34.8023264 97.9887566,34.9932664 97.8845709,35.0977339 C97.780626,35.2020806 97.6130857,35.2542539 97.3814682,35.2542539 L97.3814682,35.2542539 Z M80.3425815,35.2542539 L77.393101,35.2542539 C76.9074629,35.2542539 76.6640416,35.0110198 76.6640416,34.5237063 L76.6640416,23.7018434 L83.9246441,23.7018434 L85.1312716,23.7018434 C85.8715325,23.7018434 86.3928225,23.5456857 86.6933352,23.2322833 C86.9937274,22.9196056 87.144044,22.4031861 87.144044,21.683991 L87.144044,18.7614383 C87.144044,18.019055 86.9937274,17.4909207 86.6933352,17.1783637 C86.3928225,16.8648406 85.8715325,16.7081998 85.1312716,16.7081998 L83.9246441,16.7081998 L76.6640416,16.7081998 L76.6640416,13.6114943 C76.6640416,13.12406 76.9074629,12.8809467 77.393101,12.8809467 L85.8602105,12.8809467 C87.6644909,12.8809467 89.0640729,13.3732119 90.0591973,14.3596746 C91.0533582,15.3456542 91.5515227,16.7427404 91.5515227,18.5527449 L91.5515227,21.8928051 C91.5515227,23.7018434 91.0533582,25.0998958 90.0591973,26.0857547 C89.0640729,27.071855 87.6644909,27.5646033 85.8602105,27.5646033 L81.487902,27.5646033 C81.210515,27.5646033 81.0716408,27.6921382 81.0716408,27.9470871 L81.0716408,34.5237063 C81.0716408,35.0110198 80.8285809,35.2542539 80.3425815,35.2542539 L80.3425815,35.2542539 Z" id="Parcel" fill="#0E5A98"></path>
                    <path d="M156.640684,56.2292188 C156.640684,56.9719643 156.484586,57.4997364 156.171427,57.8127764 C155.859231,58.1258165 155.332882,58.2828196 154.592621,58.2828196 L152.128177,58.2828196 C151.387916,58.2828196 150.866626,58.1258165 150.566113,57.8127764 C150.2656,57.4997364 150.114922,56.9719643 150.114922,56.2292188 L150.114922,45.6148416 C150.114922,44.8717337 150.2656,44.3439617 150.566113,44.031284 C150.866626,43.7177608 151.387916,43.5612408 152.128177,43.5612408 L154.592621,43.5612408 C155.332882,43.5612408 155.859231,43.7177608 156.171427,44.031284 C156.484586,44.3439617 156.640684,44.8717337 156.640684,45.6148416 L156.640684,56.2292188 Z M155.321199,39.7335047 L151.434047,39.7335047 C149.605918,39.7335047 148.194894,40.2203351 147.200251,41.1945999 C146.204765,42.1692269 145.707082,43.5730764 145.707082,45.4056651 L145.707082,56.4383953 C145.707082,58.270984 146.204765,59.6749542 147.200251,60.6490982 C148.194894,61.6237253 149.605918,62.1110388 151.434047,62.1110388 L155.321199,62.1110388 C157.149327,62.1110388 158.560713,61.6237253 159.556199,60.6490982 C160.55048,59.6749542 161.048283,58.270984 161.048283,56.4383953 L161.048283,45.4056651 C161.048283,43.5730764 160.55048,42.1692269 159.556199,41.1945999 C158.560713,40.2203351 157.149327,39.7335047 155.321199,39.7335047 Z M85.7624205,39.7376713 L77.2956722,39.7376713 C76.8096728,39.7376713 76.5662515,39.9809053 76.5662515,40.4682189 L76.5662515,43.5646828 L83.8276971,43.5646828 L85.0343247,43.5646828 C85.7742242,43.5646828 86.2950325,43.7220482 86.5959065,44.0347259 C86.8964191,44.3481283 87.0466152,44.8759004 87.0466152,45.6182836 L87.0466152,48.5408363 C87.0466152,49.2600314 86.8964191,49.7759678 86.5959065,50.0894909 C86.2950325,50.4030141 85.7742242,50.5590511 85.0343247,50.5590511 L83.8276971,50.5590511 L76.5662515,50.5590511 L76.5662515,61.3804308 C76.5662515,61.8678651 76.8096728,62.1109784 77.2956722,62.1109784 L80.2447914,62.1109784 C80.7307908,62.1109784 80.9738507,61.8678651 80.9738507,61.3804308 L80.9738507,54.8042947 C80.9738507,54.5488627 81.1127249,54.4209655 81.3909551,54.4209655 L85.7624205,54.4209655 C87.567544,54.4209655 88.9671259,53.9285796 89.9617686,52.9430831 C90.9564113,51.9566204 91.4542144,50.5590511 91.4542144,48.7495297 L91.4542144,45.4094694 C91.4542144,43.5999481 90.9564113,42.2020164 89.9617686,41.2165199 C88.9671259,40.2305403 87.567544,39.7376713 85.7624205,39.7376713 Z M107.024985,39.7376713 L95.6770495,39.7376713 C95.1915319,39.7376713 94.948472,39.9809053 94.948472,40.4682189 L94.948472,61.3804308 C94.948472,61.8678651 95.1915319,62.1109784 95.6770495,62.1109784 L107.024985,62.1109784 C107.487016,62.1109784 107.719115,61.8678651 107.719115,61.3804308 L107.719115,59.0146353 C107.719115,58.5273218 107.487016,58.2840877 107.024985,58.2840877 L99.771971,58.2840877 C99.494584,58.2840877 99.3555894,58.1561906 99.3555894,57.9011209 L99.3555894,53.064217 C99.3555894,52.8092681 99.494584,52.6812502 99.771971,52.6812502 L105.706704,52.6812502 C106.191861,52.6812502 106.434921,52.4380161 106.434921,51.9507026 L106.434921,49.5849071 C106.434921,49.0975935 106.191861,48.8543595 105.706704,48.8543595 L99.771971,48.8543595 C99.494584,48.8543595 99.3555894,48.7264623 99.3555894,48.4713926 L99.3555894,43.9475288 C99.3555894,43.6925799 99.494584,43.5646828 99.771971,43.5646828 L107.024985,43.5646828 C107.487016,43.5646828 107.719115,43.3213279 107.719115,42.8344975 L107.719115,40.4682189 C107.719115,39.9809053 107.487016,39.7376713 107.024985,39.7376713 Z M123.196746,53.5170503 L123.196746,53.3773175 C125.256492,52.5188727 126.285702,50.7795197 126.285702,48.1582922 L126.285702,45.4439497 C126.285702,43.6349115 125.776939,42.231062 124.758809,41.2337299 C123.741523,40.23676 122.329655,39.7376109 120.525013,39.7376109 L112.266396,39.7376109 C111.780396,39.7376109 111.537457,39.9809657 111.537457,40.4681585 L111.537457,43.5646224 L118.705677,43.5646224 L119.726818,43.5646224 C120.467922,43.5646224 121.011013,43.7279056 121.358138,44.052419 C121.705143,44.3768116 121.878946,44.8990281 121.878946,45.6182232 L121.878946,48.3325656 C121.878946,49.0280895 121.705143,49.5326733 121.358138,49.8458342 C121.011013,50.1588742 120.467922,50.3153943 119.726818,50.3153943 L118.705677,50.3153943 L111.537457,50.3153943 L111.537457,61.3804912 C111.537457,61.8678048 111.780396,62.1110388 112.266396,62.1110388 L115.215997,62.1110388 C115.701514,62.1110388 115.944574,61.8678048 115.944574,61.3804912 L115.944574,54.2475979 C115.944574,53.9921659 116.08393,53.864631 116.360836,53.864631 L118.685924,53.864631 L122.156815,61.3804912 C122.271721,61.6821788 122.422037,61.8795196 122.607524,61.9721514 C122.792529,62.0647833 123.093042,62.1110388 123.509785,62.1110388 L126.320873,62.1110388 C126.921898,62.1110388 127.118345,61.8332641 126.909733,61.2765068 L123.196746,53.5170503 Z M204.123526,39.7334563 L198.986988,39.7334563 C198.616857,39.7334563 198.396923,39.8958942 198.327667,40.2202868 L194.613836,52.5057811 L194.405706,52.5057811 L190.726684,40.2202868 C190.610935,39.8958942 190.390519,39.7334563 190.067002,39.7334563 L184.895655,39.7334563 C184.409655,39.7334563 184.166234,39.9766904 184.166234,40.4636416 L184.166234,61.3800806 C184.166234,61.866911 184.409655,62.1109905 184.895655,62.1109905 L187.741552,62.1109905 C188.042787,62.1109905 188.238873,62.0588172 188.331978,61.9544705 C188.42436,61.8501238 188.470129,61.65858 188.470129,61.3800806 L188.470129,44.8489804 L188.608522,44.8489804 L192.21913,56.5426936 C192.357643,57.0064567 192.647195,57.2378552 193.087063,57.2378552 L196.002217,57.2378552 C196.441965,57.2378552 196.730313,57.0064567 196.87015,56.5426936 L200.410539,44.8843665 L200.549413,44.8843665 L200.549413,61.3800806 C200.549413,61.866911 200.791991,62.1109905 201.277629,62.1109905 L204.123526,62.1109905 C204.609887,62.1109905 204.852947,61.866911 204.852947,61.3800806 L204.852947,40.4636416 C204.852947,39.9766904 204.609887,39.7334563 204.123526,39.7334563 Z M180.631579,61.2761204 L176.917387,53.5144899 L176.917387,53.3752402 C178.977254,52.5175201 180.007067,50.7775632 180.007067,48.1548864 L180.007067,45.4406647 C180.007067,43.6311434 179.49758,42.2272939 178.478969,41.2299618 C177.461321,40.2321466 176.049935,39.7334805 174.244812,39.7334805 L165.984508,39.7334805 C165.498508,39.7334805 165.255087,39.9767146 165.255087,40.4636658 L165.255087,43.5613374 L170.03366,43.5613374 L170.045464,43.5613374 L172.160615,43.5613374 L173.446616,43.5613374 C174.18772,43.5613374 174.730811,43.7236544 175.078298,44.0485301 C175.424941,44.3734058 175.598745,44.8952601 175.598745,45.6148174 L175.598745,48.3291599 C175.598745,49.0256499 175.424941,49.5302338 175.078298,49.8432738 C174.730811,50.1563139 174.18772,50.3129547 173.446616,50.3129547 L172.160615,50.3129547 L170.045464,50.3129547 L165.255087,50.3129547 L165.255087,61.3801047 C165.255087,61.8669352 165.498508,62.1110147 165.984508,62.1110147 L168.934952,62.1110147 C169.420951,62.1110147 169.663891,61.8669352 169.663891,61.3801047 L169.663891,54.2458829 C169.663891,53.990934 169.802042,53.8629161 170.080272,53.8629161 L172.405722,53.8629161 L175.876613,61.3801047 C175.992362,61.6817923 176.141835,61.8787708 176.328165,61.9712819 C176.512809,62.064276 176.813683,62.1110147 177.229583,62.1110147 L180.041514,62.1110147 C180.642539,62.1110147 180.83983,61.8320322 180.631579,61.2761204 Z M142.555168,39.7372486 L131.207232,39.7372486 C130.721715,39.7372486 130.478655,39.981328 130.478655,40.4681585 L130.478655,57.2531207 L130.480341,57.2531207 L130.480823,61.6098365 C130.480823,61.8862828 130.704973,62.1110388 130.980674,62.1110388 L134.385199,62.1110388 C134.6609,62.1110388 134.884568,61.8862828 134.884568,61.6098365 L134.884568,57.4087953 L134.886254,57.4087953 L134.886736,53.0642774 C134.886736,52.8092077 135.025128,52.6816729 135.302636,52.6816729 L141.237369,52.6816729 C141.722887,52.6816729 141.965465,52.4380765 141.965465,51.950763 L141.965465,49.5848467 C141.965465,49.0975331 141.722887,48.8539368 141.237369,48.8539368 L135.302636,48.8539368 C135.025128,48.8539368 134.886736,48.7264019 134.886736,48.471453 L134.886736,43.9475892 C134.886736,43.6925195 135.025128,43.5646224 135.302636,43.5646224 L142.555168,43.5646224 C143.018042,43.5646224 143.249298,43.3213883 143.249298,42.8344371 L143.249298,40.4681585 C143.249298,39.981328 143.018042,39.7372486 142.555168,39.7372486 Z" id="Perform" fill="#48C5E5"></path>
                </g>
            </g>
        </g>
    </g>
</svg>