<?xml version="1.0" encoding="utf-8"?>
<!-- Generator: Adobe Illustrator 19.0.0, SVG Export Plug-In . SVG Version: 6.00 Build 0)  -->
<svg version="1.1" id="Layer_1" xmlns="http://www.w3.org/2000/svg" xmlns:xlink="http://www.w3.org/1999/xlink" x="0px" y="0px"
	 viewBox="-483.2 730.7 110.6 110.6" style="enable-background:new -483.2 730.7 110.6 110.6;" xml:space="preserve">
<style type="text/css">
	.st0{fill:#48C3CB;}
	.st1{fill:#FFFFFF;}
</style>
<g>
	<circle class="st0" cx="-427.9" cy="786" r="55.3"/>
	<g>
		<path class="st1" d="M-399.7,771.7c-4.6-0.7-9,0.9-12.1,3.9c0-1.1,0-2.2,0-3.3c0-2.8-4.4-2.8-4.4,0c0,4.2,0,8.4,0,12.6
			c0,0.6,0,1.1,0,1.6c0,7.3,0,14.6,0,21.8c0,2.8,4.4,2.8,4.4,0c0-4.1,0-8.2,0-12.3c1.1,1.1,2.4,2,3.8,2.7c6.5,3.1,14.1,0.7,18.1-5.2
			c1.5-2.3,2.2-5.1,2.3-7.8c0-0.1,0-0.2,0-0.3C-387.9,778.7-392.9,772.8-399.7,771.7z M-401.9,795.8c-5.5,0.1-9.8-4.6-9.9-9.9
			c-0.1-5.5,4.6-9.8,9.9-9.9c5.5-0.1,9.8,4.6,9.9,9.9C-392.1,791.3-396.5,795.7-401.9,795.8z"/>
		<path class="st1" d="M-446.1,771.9c-1.4,0.4-2.7,1-3.8,1.9c0-0.5,0-1,0-1.5c0-2.8-4.4-2.8-4.4,0c0,9,0,18.1,0,27.2
			c0,2.8,4.4,2.8,4.4,0c0-5.6,0-11.2,0-16.8c0.1-3.1,2-5.7,5-6.5c2.7-0.7,5.6,0.2,7.1,3c1.3,2.5,5.1,0.3,3.8-2.2
			C-436.5,772.3-441,770.7-446.1,771.9z"/>
		<path class="st1" d="M-458.3,770.1c-2,0-3.5,0-5.5,0c0-2,0-4.1,0-6.1c0-2.8-4.4-2.8-4.4,0c0,11.8,0,23.6,0,35.5
			c0,2.8,4.4,2.8,4.4,0c0-8.3,0-16.6,0-24.9c2,0,3.5,0,5.5,0C-455.4,774.5-455.4,770.1-458.3,770.1z"/>
		<g>
			<path class="st1" d="M-431.8,772.4c0,9,0,18.1,0,27.2c0,2.8,4.4,2.8,4.4,0c0-9.1,0-18.1,0-27.2
				C-427.4,769.6-431.8,769.6-431.8,772.4z"/>
			<circle class="st1" cx="-429.6" cy="763.8" r="2.2"/>
		</g>
		<path class="st1" d="M-424.1,772.3c0,9,0,18.1,0,27.2c0,2.8,4.4,2.8,4.4,0c0-9,0-18.1,0-27.2
			C-419.7,769.5-424.1,769.5-424.1,772.3z"/>
		<circle class="st1" cx="-421.9" cy="763.7" r="2.2"/>
	</g>
	<g>
		<path class="st1" d="M-408.5,809.7c0,0.2-0.1,0.3-0.2,0.5c-0.1,0.2-0.3,0.2-0.5,0.2s-0.3-0.1-0.5-0.2c-0.2-0.1-0.2-0.3-0.2-0.5
			c0-0.2,0.1-0.3,0.2-0.5c0.1-0.1,0.3-0.2,0.5-0.2s0.3,0.1,0.5,0.2C-408.5,809.4-408.5,809.6-408.5,809.7z"/>
		<path class="st1" d="M-404.9,804.8c0.3-0.2,0.7-0.3,1.1-0.3c0.2,0,0.3,0,0.5,0c0.2,0,0.3,0.1,0.5,0.2c0.2,0.1,0.3,0.2,0.4,0.4
			c0.1,0.2,0.2,0.3,0.3,0.6c0.2-0.4,0.5-0.7,0.8-0.9c0.3-0.2,0.7-0.3,1.2-0.3c0.7,0,1.2,0.2,1.6,0.6c0.4,0.4,0.5,1,0.5,1.7v3.4h-0.8
			v-3.1c0-0.6-0.1-1.1-0.3-1.4c-0.2-0.3-0.6-0.5-1.1-0.5c-0.3,0-0.5,0.1-0.8,0.2c-0.2,0.1-0.4,0.3-0.5,0.5c-0.1,0.2-0.2,0.4-0.3,0.7
			c-0.1,0.2-0.1,0.5-0.1,0.8v3h-0.8v-3.3c0-0.3,0-0.5-0.1-0.7c0-0.2-0.1-0.4-0.2-0.6s-0.2-0.3-0.4-0.4c-0.2-0.1-0.4-0.1-0.7-0.1
			c-0.2,0-0.4,0-0.6,0.1c-0.2,0.1-0.4,0.2-0.5,0.4c-0.1,0.2-0.3,0.4-0.4,0.7c-0.1,0.3-0.1,0.6-0.1,1v2.9h-0.8V806c0-0.2,0-0.3,0-0.6
			c0-0.2,0-0.5,0-0.6h0.8c0,0.2,0,0.3,0,0.5s0,0.3,0,0.5l0,0C-405.5,805.3-405.3,805.1-404.9,804.8z"/>
		<path class="st1" d="M-390.8,807.3c0,0.1,0,0.1,0,0.2s0,0.1,0,0.2h-4.7c0,0.3,0.1,0.5,0.2,0.8c0.1,0.2,0.2,0.5,0.4,0.6
			c0.2,0.2,0.4,0.3,0.6,0.4c0.2,0.1,0.5,0.2,0.8,0.2c0.4,0,0.8-0.1,1.1-0.3c0.3-0.2,0.5-0.4,0.7-0.7l0.6,0.5
			c-0.3,0.4-0.7,0.7-1.1,0.9c-0.4,0.2-0.8,0.3-1.3,0.3c-0.4,0-0.8-0.1-1.2-0.2c-0.4-0.1-0.7-0.4-0.9-0.6c-0.3-0.3-0.5-0.6-0.6-0.9
			c-0.1-0.4-0.2-0.8-0.2-1.2s0.1-0.8,0.2-1.2c0.1-0.4,0.3-0.7,0.6-0.9c0.3-0.3,0.6-0.5,0.9-0.6c0.3-0.1,0.7-0.2,1.1-0.2
			s0.8,0.1,1.2,0.2c0.3,0.1,0.6,0.3,0.8,0.6s0.4,0.5,0.5,0.9C-390.8,806.6-390.8,806.9-390.8,807.3z M-391.6,807.1
			c0-0.5-0.2-1-0.5-1.3c-0.3-0.3-0.8-0.5-1.3-0.5c-0.3,0-0.5,0-0.8,0.2c-0.2,0.1-0.4,0.2-0.6,0.4s-0.3,0.4-0.4,0.6
			c-0.1,0.2-0.2,0.4-0.2,0.7h3.8V807.1z"/>
	</g>
</g>
</svg>
